<svg xmlns="http://www.w3.org/2000/svg" width="36" viewBox="0 0 36 36" height="36" version="1.0"><defs><clipPath id="a"><path d="M 0.488281 0 L 35.511719 0 L 35.511719 35.027344 L 0.488281 35.027344 Z M 0.488281 0"/></clipPath><clipPath id="b"><path d="M 1 16 L 35.511719 16 L 35.511719 25 L 1 25 Z M 1 16"/></clipPath><clipPath id="c"><path d="M 1 16 L 35.511719 16 L 35.511719 22 L 1 22 Z M 1 16"/></clipPath><clipPath id="d"><path d="M 1 17 L 35.511719 17 L 35.511719 22 L 1 22 Z M 1 17"/></clipPath><clipPath id="e"><path d="M 1 16 L 35.511719 16 L 35.511719 21 L 1 21 Z M 1 16"/></clipPath><clipPath id="f"><path d="M 9 6.445312 L 26 6.445312 L 26 25 L 9 25 Z M 9 6.445312"/></clipPath><clipPath id="g"><path d="M 0.488281 18 L 35.511719 18 L 35.511719 26 L 0.488281 26 Z M 0.488281 18"/></clipPath><clipPath id="h"><path d="M 0.488281 18 L 35.511719 18 L 35.511719 25 L 0.488281 25 Z M 0.488281 18"/></clipPath><clipPath id="i"><path d="M 0.488281 19 L 35.511719 19 L 35.511719 25 L 0.488281 25 Z M 0.488281 19"/></clipPath><clipPath id="j"><path d="M 0.488281 18 L 35.511719 18 L 35.511719 24 L 0.488281 24 Z M 0.488281 18"/></clipPath><clipPath id="k"><path d="M 7 12 L 10.179688 12 L 10.179688 28.335938 L 7 28.335938 Z M 7 12"/></clipPath><clipPath id="l"><path d="M 4.34375 12 L 8 12 L 8 28.335938 L 4.34375 28.335938 Z M 4.34375 12"/></clipPath><clipPath id="m"><path d="M 4.34375 17 L 10.179688 17 L 10.179688 23 L 4.34375 23 Z M 4.34375 17"/></clipPath><clipPath id="n"><path d="M 4.34375 23 L 10.179688 23 L 10.179688 26 L 4.34375 26 Z M 4.34375 23"/></clipPath><clipPath id="o"><path d="M 7 6.445312 L 9 6.445312 L 9 8 L 7 8 Z M 7 6.445312"/></clipPath><clipPath id="p"><path d="M 6 6.445312 L 8 6.445312 L 8 8 L 6 8 Z M 6 6.445312"/></clipPath><clipPath id="q"><path d="M 4.34375 17 L 10.179688 17 L 10.179688 18 L 4.34375 18 Z M 4.34375 17"/></clipPath><clipPath id="r"><path d="M 4.34375 22 L 10.179688 22 L 10.179688 23 L 4.34375 23 Z M 4.34375 22"/></clipPath><clipPath id="s"><path d="M 4.34375 23 L 10.179688 23 L 10.179688 24 L 4.34375 24 Z M 4.34375 23"/></clipPath><clipPath id="t"><path d="M 4.34375 24 L 10.179688 24 L 10.179688 26 L 4.34375 26 Z M 4.34375 24"/></clipPath><clipPath id="u"><path d="M 4.34375 18 L 6 18 L 6 20 L 4.34375 20 Z M 4.34375 18"/></clipPath><clipPath id="v"><path d="M 4.34375 20 L 10 20 L 10 21 L 4.34375 21 Z M 4.34375 20"/></clipPath><clipPath id="w"><path d="M 4.34375 21 L 10 21 L 10 22 L 4.34375 22 Z M 4.34375 21"/></clipPath><clipPath id="x"><path d="M 4.34375 23 L 8 23 L 8 24 L 4.34375 24 Z M 4.34375 23"/></clipPath><clipPath id="y"><path d="M 4.34375 24 L 8 24 L 8 25 L 4.34375 25 Z M 4.34375 24"/></clipPath><clipPath id="z"><path d="M 7 13 L 10.179688 13 L 10.179688 18 L 7 18 Z M 7 13"/></clipPath><clipPath id="A"><path d="M 7 25 L 10.179688 25 L 10.179688 28.335938 L 7 28.335938 Z M 7 25"/></clipPath><clipPath id="B"><path d="M 4.34375 22 L 5 22 L 5 24 L 4.34375 24 Z M 4.34375 22"/></clipPath><clipPath id="C"><path d="M 4.34375 25 L 8 25 L 8 28.335938 L 4.34375 28.335938 Z M 4.34375 25"/></clipPath><clipPath id="D"><path d="M 4.34375 17 L 5 17 L 5 23 L 4.34375 23 Z M 4.34375 17"/></clipPath><clipPath id="E"><path d="M 4.34375 23 L 5 23 L 5 25 L 4.34375 25 Z M 4.34375 23"/></clipPath><clipPath id="F"><path d="M 4.34375 17 L 5 17 L 5 18 L 4.34375 18 Z M 4.34375 17"/></clipPath><clipPath id="G"><path d="M 4.34375 22 L 5 22 L 5 23 L 4.34375 23 Z M 4.34375 22"/></clipPath><clipPath id="H"><path d="M 4.34375 23 L 5 23 L 5 24 L 4.34375 24 Z M 4.34375 23"/></clipPath><clipPath id="I"><path d="M 4.34375 24 L 5 24 L 5 26 L 4.34375 26 Z M 4.34375 24"/></clipPath><clipPath id="J"><path d="M 4.34375 23 L 5 23 L 5 24 L 4.34375 24 Z M 4.34375 23"/></clipPath><clipPath id="K"><path d="M 4.34375 24 L 5 24 L 5 25 L 4.34375 25 Z M 4.34375 24"/></clipPath><clipPath id="L"><path d="M 6 6.445312 L 9 6.445312 L 9 8 L 6 8 Z M 6 6.445312"/></clipPath><clipPath id="M"><path d="M 4.34375 13 L 8 13 L 8 18 L 4.34375 18 Z M 4.34375 13"/></clipPath></defs><g clip-path="url(#a)"><path fill="#58B9BC" d="M 18 0 C 8.328125 0 0.488281 7.839844 0.488281 17.511719 C 0.488281 27.1875 8.328125 35.027344 18 35.027344 C 27.671875 35.027344 35.511719 27.1875 35.511719 17.511719 C 35.511719 7.839844 27.671875 0 18 0 Z M 18 0"/></g><g clip-path="url(#b)"><path fill="#ED1847" d="M 35.511719 19.871094 C 35.511719 19.871094 31.996094 17.140625 18.828125 16.574219 C 7.734375 16.097656 5.765625 17.078125 1.625 19.042969 C 0.492188 19.582031 11.835938 23.566406 15.757812 23.980469 C 19.679688 24.394531 32.15625 25.234375 35.511719 19.871094"/></g><path fill="#CB143B" d="M 28.0625 22.542969 C 28.074219 22.207031 27.742188 21.839844 27.132812 21.582031 C 26.308594 21.234375 25.316406 21.113281 24.398438 21.007812 C 23.53125 20.90625 21.925781 20.519531 21.097656 20.644531 C 21.054688 20.652344 21.007812 20.652344 20.953125 20.644531 C 20.160156 20.519531 19.328125 20.5 18.523438 20.476562 C 16.65625 20.414062 14.726562 20.417969 12.875 20.652344 L 12.808594 23.074219 C 13.703125 23.28125 14.59375 23.492188 15.488281 23.703125 C 16.261719 23.882812 17.035156 24.066406 17.8125 24.246094 C 19.503906 24.332031 21.730469 24.601562 23.34375 24.253906 C 23.207031 24.183594 23.058594 24.023438 23.148438 23.894531 C 23.339844 23.625 23.953125 23.855469 24.28125 23.671875 C 24.339844 23.640625 24.382812 23.59375 24.445312 23.566406 C 24.527344 23.523438 24.632812 23.511719 24.734375 23.503906 C 25.605469 23.433594 28.035156 23.578125 28.0625 22.542969"/><g clip-path="url(#c)"><path fill="#2A56AE" d="M 3.023438 20.085938 C 6.265625 18.632812 9.046875 17.960938 18.609375 18.371094 C 28.21875 18.785156 32.6875 20.351562 34.402344 21.167969 C 34.835938 20.78125 35.210938 20.351562 35.511719 19.871094 C 35.511719 19.871094 31.996094 17.140625 18.828125 16.574219 C 7.734375 16.097656 5.765625 17.078125 1.625 19.042969 C 1.320312 19.1875 1.917969 19.582031 3.023438 20.085938"/></g><g clip-path="url(#d)"><path fill="#46C0AE" d="M 34.710938 20.796875 C 32.964844 19.976562 28.410156 18.410156 18.621094 17.992188 C 8.878906 17.578125 6.046875 18.246094 2.746094 19.699219 C 2.230469 19.46875 1.828125 19.261719 1.566406 19.089844 C 1.4375 19.261719 2.015625 19.628906 3.023438 20.085938 C 6.265625 18.632812 9.046875 17.960938 18.609375 18.371094 C 28.21875 18.785156 32.6875 20.351562 34.402344 21.167969 C 34.691406 20.910156 34.949219 20.632812 35.183594 20.335938 C 35.03125 20.496094 34.878906 20.648438 34.710938 20.796875"/></g><g clip-path="url(#e)"><path fill="#0D1222" d="M 1.871094 19.480469 C 5.875 17.582031 7.960938 16.644531 18.867188 17.109375 C 29.972656 17.585938 34.214844 19.605469 35.269531 20.222656 C 35.355469 20.109375 35.4375 19.992188 35.511719 19.871094 C 35.511719 19.871094 31.996094 17.140625 18.828125 16.574219 C 7.734375 16.097656 5.765625 17.078125 1.625 19.042969 C 1.457031 19.125 1.5625 19.277344 1.871094 19.480469"/></g><g clip-path="url(#f)"><path fill="#FCD006" d="M 25.382812 22.582031 C 22.273438 16.953125 22.894531 6.695312 18.167969 6.5625 C 13.960938 6.445312 13.683594 16.375 9.992188 22.246094 C 9.992188 22.246094 11.0625 23.921875 17.851562 24.113281 C 25.335938 24.324219 25.382812 22.582031 25.382812 22.582031"/><path fill="#FAB60A" d="M 23.4375 19.53125 C 20.105469 20.296875 16.625 18.105469 16.355469 14.582031 C 16.203125 12.542969 16.851562 10.496094 17.601562 8.628906 C 17.695312 8.394531 18.460938 6.589844 18.746094 6.652344 C 18.5625 6.613281 18.371094 6.585938 18.167969 6.582031 C 13.957031 6.460938 13.683594 16.394531 9.992188 22.261719 C 9.992188 22.261719 11.0625 23.9375 17.851562 24.128906 C 25.332031 24.339844 25.382812 22.597656 25.382812 22.597656 C 24.84375 21.625 24.417969 20.507812 24.054688 19.332031 C 23.863281 19.414062 23.660156 19.480469 23.4375 19.53125"/><path fill="#F9A70D" d="M 24.824219 21.988281 C 21.476562 24.140625 16.730469 22.03125 15.25 18.527344 C 13.5625 14.539062 15.625 10.046875 17.753906 6.585938 C 13.9375 7.117188 13.554688 16.578125 9.992188 22.246094 C 9.992188 22.246094 11.0625 23.921875 17.851562 24.113281 C 25.335938 24.324219 25.382812 22.582031 25.382812 22.582031 C 25.253906 22.347656 25.132812 22.105469 25.015625 21.859375 C 24.949219 21.902344 24.886719 21.949219 24.824219 21.988281"/></g><path fill="#FDD94B" d="M 21.652344 11.875 C 22.121094 13.875 21.824219 15.65625 20.992188 15.851562 C 20.160156 16.046875 19.109375 14.585938 18.640625 12.585938 C 18.171875 10.585938 18.46875 8.804688 19.300781 8.609375 C 20.128906 8.410156 21.183594 9.875 21.652344 11.875"/><path fill="#46C0AE" d="M 12.777344 15.675781 C 12.65625 16.042969 12.535156 16.417969 12.410156 16.789062 C 13.5 17.128906 15.734375 17.722656 18.308594 17.796875 C 19.953125 17.84375 21.738281 17.675781 23.449219 17.09375 C 23.355469 16.714844 23.265625 16.332031 23.179688 15.953125 C 19.144531 17.363281 14.46875 16.195312 12.777344 15.675781"/><path fill="#CFEFFC" d="M 23.277344 16.363281 C 23.246094 16.226562 23.210938 16.089844 23.179688 15.953125 C 19.144531 17.363281 14.46875 16.195312 12.777344 15.675781 C 12.734375 15.800781 12.691406 15.925781 12.652344 16.046875 C 14.792969 16.644531 19.253906 17.574219 23.277344 16.363281"/><path fill="#0D1222" d="M 18.316406 17.515625 C 15.796875 17.445312 13.609375 16.875 12.496094 16.53125 C 12.464844 16.617188 12.4375 16.703125 12.410156 16.789062 C 13.5 17.128906 15.734375 17.722656 18.308594 17.796875 C 19.953125 17.84375 21.738281 17.675781 23.449219 17.09375 C 23.429688 17.007812 23.410156 16.921875 23.390625 16.835938 C 21.699219 17.398438 19.941406 17.5625 18.316406 17.515625"/><path fill="#0D1222" d="M 13.785156 14.628906 C 13.773438 14.628906 13.761719 14.625 13.753906 14.625 C 13.585938 14.621094 13.417969 14.765625 13.421875 14.941406 C 13.425781 15.117188 13.554688 15.269531 13.734375 15.273438 C 13.746094 15.273438 13.757812 15.273438 13.765625 15.277344 C 13.933594 15.28125 14.101562 15.136719 14.097656 14.960938 C 14.09375 14.785156 13.964844 14.632812 13.785156 14.628906"/><path fill="#0D1222" d="M 15.175781 15.671875 C 15.589844 15.683594 15.609375 15.035156 15.191406 15.023438 C 14.777344 15.011719 14.757812 15.660156 15.175781 15.671875"/><path fill="#0D1222" d="M 16.90625 15.980469 C 17.320312 15.992188 17.339844 15.34375 16.925781 15.332031 C 16.511719 15.320312 16.492188 15.96875 16.90625 15.980469"/><path fill="#0D1222" d="M 18.761719 15.382812 C 18.75 15.382812 18.738281 15.382812 18.730469 15.382812 C 18.5625 15.378906 18.394531 15.523438 18.398438 15.699219 C 18.402344 15.875 18.53125 16.027344 18.710938 16.03125 C 18.722656 16.03125 18.734375 16.03125 18.742188 16.035156 C 18.910156 16.039062 19.078125 15.894531 19.074219 15.71875 C 19.070312 15.542969 18.941406 15.390625 18.761719 15.382812"/><path fill="#0D1222" d="M 20.601562 15.273438 C 20.59375 15.273438 20.582031 15.273438 20.570312 15.273438 C 20.402344 15.269531 20.238281 15.414062 20.238281 15.589844 C 20.242188 15.765625 20.371094 15.917969 20.554688 15.921875 C 20.5625 15.921875 20.574219 15.921875 20.585938 15.921875 C 20.753906 15.929688 20.917969 15.785156 20.917969 15.609375 C 20.914062 15.433594 20.785156 15.28125 20.601562 15.273438"/><path fill="#0D1222" d="M 22.226562 14.929688 C 22.214844 14.929688 22.203125 14.929688 22.191406 14.929688 C 22.023438 14.925781 21.859375 15.070312 21.863281 15.246094 C 21.863281 15.421875 21.992188 15.574219 22.175781 15.578125 C 22.183594 15.578125 22.195312 15.578125 22.207031 15.578125 C 22.375 15.585938 22.539062 15.441406 22.539062 15.265625 C 22.535156 15.089844 22.40625 14.9375 22.226562 14.929688"/><path fill="#ED1847" d="M 23.941406 18.933594 C 23.820312 18.523438 23.707031 18.105469 23.597656 17.683594 C 23.574219 17.6875 23.550781 17.695312 23.527344 17.703125 C 18.8125 19.585938 13.019531 17.6875 12.199219 17.398438 C 12.058594 17.808594 11.910156 18.214844 11.753906 18.617188 C 12.328125 18.824219 15.027344 19.734375 18.265625 19.824219 C 20.082031 19.875 22.066406 19.667969 23.941406 18.933594"/><path fill="#FFF" d="M 12.652344 18.398438 C 12.589844 18.550781 12.453125 18.636719 12.347656 18.59375 C 12.242188 18.550781 12.210938 18.390625 12.273438 18.238281 C 12.339844 18.082031 12.652344 17.867188 12.652344 17.867188 C 12.652344 17.867188 12.714844 18.242188 12.652344 18.398438"/><path fill="#FFF" d="M 13.574219 18.59375 C 13.535156 18.753906 13.414062 18.863281 13.304688 18.835938 C 13.195312 18.808594 13.136719 18.65625 13.175781 18.496094 C 13.21875 18.332031 13.492188 18.070312 13.492188 18.070312 C 13.492188 18.070312 13.617188 18.433594 13.574219 18.59375"/><path fill="#FFF" d="M 14.480469 18.808594 C 14.449219 18.96875 14.332031 19.085938 14.222656 19.0625 C 14.109375 19.042969 14.046875 18.894531 14.078125 18.730469 C 14.109375 18.566406 14.371094 18.289062 14.371094 18.289062 C 14.371094 18.289062 14.511719 18.644531 14.480469 18.808594"/><path fill="#FFF" d="M 15.429688 18.996094 C 15.40625 19.160156 15.300781 19.28125 15.1875 19.269531 C 15.074219 19.253906 15 19.109375 15.019531 18.945312 C 15.042969 18.777344 15.285156 18.484375 15.285156 18.484375 C 15.285156 18.484375 15.449219 18.828125 15.429688 18.996094"/><path fill="#FFF" d="M 16.382812 19.128906 C 16.367188 19.296875 16.261719 19.421875 16.148438 19.40625 C 16.035156 19.394531 15.957031 19.253906 15.976562 19.085938 C 15.992188 18.921875 16.230469 18.621094 16.230469 18.621094 C 16.230469 18.621094 16.398438 18.964844 16.382812 19.128906"/><path fill="#FFF" d="M 17.492188 19.257812 C 17.484375 19.421875 17.386719 19.550781 17.273438 19.546875 C 17.160156 19.542969 17.074219 19.402344 17.082031 19.238281 C 17.089844 19.070312 17.308594 18.757812 17.308594 18.757812 C 17.308594 18.757812 17.5 19.089844 17.492188 19.257812"/><path fill="#FFF" d="M 23.054688 18.691406 C 23.113281 18.847656 23.242188 18.945312 23.351562 18.90625 C 23.457031 18.867188 23.5 18.710938 23.441406 18.554688 C 23.386719 18.398438 23.085938 18.160156 23.085938 18.160156 C 23.085938 18.160156 23 18.535156 23.054688 18.691406"/><path fill="#FFF" d="M 22.125 18.898438 C 22.152344 19.0625 22.269531 19.175781 22.378906 19.15625 C 22.492188 19.132812 22.558594 18.984375 22.527344 18.820312 C 22.496094 18.65625 22.234375 18.378906 22.234375 18.378906 C 22.234375 18.378906 22.09375 18.734375 22.125 18.898438"/><path fill="#FFF" d="M 21.207031 19.058594 C 21.230469 19.222656 21.339844 19.34375 21.449219 19.332031 C 21.5625 19.316406 21.636719 19.167969 21.613281 19.003906 C 21.59375 18.839844 21.347656 18.546875 21.347656 18.546875 C 21.347656 18.546875 21.1875 18.894531 21.207031 19.058594"/><path fill="#FFF" d="M 20.25 19.191406 C 20.261719 19.359375 20.363281 19.488281 20.476562 19.480469 C 20.589844 19.472656 20.671875 19.332031 20.660156 19.164062 C 20.648438 19 20.421875 18.691406 20.421875 18.691406 C 20.421875 18.691406 20.238281 19.027344 20.25 19.191406"/><path fill="#FFF" d="M 19.191406 19.273438 C 19.199219 19.4375 19.296875 19.566406 19.410156 19.5625 C 19.523438 19.558594 19.609375 19.417969 19.601562 19.25 C 19.59375 19.085938 19.371094 18.773438 19.371094 18.773438 C 19.371094 18.773438 19.183594 19.105469 19.191406 19.273438"/><path fill="#FFF" d="M 18.132812 19.273438 C 18.132812 19.441406 18.222656 19.574219 18.335938 19.578125 C 18.449219 19.578125 18.542969 19.445312 18.542969 19.277344 C 18.546875 19.113281 18.34375 18.785156 18.34375 18.785156 C 18.34375 18.785156 18.136719 19.109375 18.132812 19.273438"/><path fill="#ED1847" d="M 14.265625 14.492188 C 14.335938 14.566406 14.398438 14.648438 14.457031 14.730469 C 14.480469 14.757812 14.519531 14.765625 14.546875 14.746094 C 14.578125 14.722656 14.582031 14.683594 14.5625 14.65625 C 14.5 14.566406 14.433594 14.484375 14.363281 14.402344 C 14.339844 14.378906 14.296875 14.375 14.273438 14.398438 C 14.246094 14.421875 14.242188 14.464844 14.265625 14.492188"/><path fill="#ED1847" d="M 14.550781 14.191406 C 14.617188 14.28125 14.6875 14.363281 14.765625 14.441406 C 14.789062 14.46875 14.832031 14.46875 14.855469 14.441406 C 14.882812 14.417969 14.882812 14.375 14.855469 14.351562 C 14.785156 14.277344 14.714844 14.199219 14.65625 14.113281 C 14.632812 14.085938 14.59375 14.078125 14.5625 14.101562 C 14.535156 14.121094 14.527344 14.164062 14.550781 14.191406"/><path fill="#ED1847" d="M 14.804688 13.945312 C 14.875 14.011719 14.9375 14.082031 14.992188 14.160156 C 15.011719 14.1875 15.054688 14.195312 15.082031 14.175781 C 15.113281 14.152344 15.117188 14.113281 15.097656 14.082031 C 15.039062 14 14.96875 13.917969 14.890625 13.851562 C 14.863281 13.828125 14.824219 13.828125 14.800781 13.855469 C 14.777344 13.882812 14.777344 13.921875 14.804688 13.945312"/><path fill="#ED1847" d="M 15.042969 13.671875 C 15.117188 13.753906 15.1875 13.839844 15.253906 13.933594 C 15.277344 13.960938 15.316406 13.964844 15.347656 13.945312 C 15.375 13.921875 15.378906 13.882812 15.359375 13.855469 C 15.289062 13.761719 15.214844 13.671875 15.136719 13.582031 C 15.113281 13.558594 15.070312 13.554688 15.046875 13.578125 C 15.019531 13.601562 15.015625 13.644531 15.042969 13.671875"/><path fill="#ED1847" d="M 16.378906 14.792969 C 16.445312 14.867188 16.511719 14.949219 16.570312 15.03125 C 16.589844 15.058594 16.628906 15.066406 16.660156 15.046875 C 16.6875 15.023438 16.695312 14.984375 16.675781 14.953125 C 16.613281 14.867188 16.546875 14.785156 16.472656 14.703125 C 16.449219 14.679688 16.410156 14.675781 16.382812 14.699219 C 16.355469 14.722656 16.355469 14.765625 16.378906 14.792969"/><path fill="#ED1847" d="M 16.660156 14.492188 C 16.726562 14.582031 16.796875 14.664062 16.875 14.742188 C 16.902344 14.769531 16.941406 14.769531 16.96875 14.742188 C 16.992188 14.71875 16.992188 14.675781 16.96875 14.652344 C 16.894531 14.578125 16.828125 14.5 16.765625 14.414062 C 16.742188 14.386719 16.703125 14.378906 16.675781 14.402344 C 16.644531 14.421875 16.640625 14.464844 16.660156 14.492188"/><path fill="#ED1847" d="M 16.914062 14.246094 C 16.984375 14.3125 17.050781 14.382812 17.105469 14.460938 C 17.125 14.488281 17.164062 14.496094 17.195312 14.476562 C 17.222656 14.453125 17.230469 14.414062 17.207031 14.382812 C 17.148438 14.296875 17.078125 14.222656 17 14.152344 C 16.972656 14.128906 16.933594 14.128906 16.910156 14.15625 C 16.886719 14.183594 16.886719 14.222656 16.914062 14.25"/><path fill="#ED1847" d="M 17.152344 13.972656 C 17.226562 14.054688 17.300781 14.140625 17.367188 14.234375 C 17.386719 14.261719 17.429688 14.265625 17.457031 14.246094 C 17.484375 14.222656 17.492188 14.183594 17.46875 14.152344 C 17.398438 14.0625 17.324219 13.972656 17.246094 13.882812 C 17.222656 13.859375 17.183594 13.855469 17.15625 13.878906 C 17.128906 13.90625 17.128906 13.945312 17.152344 13.972656"/><path fill="#ED1847" d="M 18.511719 14.941406 C 18.589844 15.011719 18.664062 15.082031 18.734375 15.15625 C 18.757812 15.183594 18.796875 15.183594 18.824219 15.160156 C 18.847656 15.136719 18.851562 15.09375 18.828125 15.070312 C 18.753906 14.988281 18.679688 14.914062 18.597656 14.84375 C 18.570312 14.820312 18.53125 14.824219 18.507812 14.851562 C 18.484375 14.878906 18.488281 14.917969 18.511719 14.941406"/><path fill="#ED1847" d="M 18.757812 14.609375 C 18.832031 14.691406 18.914062 14.765625 19.003906 14.832031 C 19.03125 14.855469 19.070312 14.851562 19.09375 14.824219 C 19.113281 14.792969 19.109375 14.753906 19.082031 14.730469 C 19 14.667969 18.921875 14.597656 18.851562 14.523438 C 18.828125 14.496094 18.785156 14.496094 18.761719 14.519531 C 18.734375 14.542969 18.734375 14.585938 18.757812 14.609375"/><path fill="#ED1847" d="M 18.980469 14.335938 C 19.058594 14.390625 19.128906 14.453125 19.195312 14.523438 C 19.21875 14.550781 19.257812 14.550781 19.285156 14.527344 C 19.3125 14.503906 19.3125 14.464844 19.289062 14.4375 C 19.21875 14.359375 19.140625 14.289062 19.054688 14.230469 C 19.023438 14.210938 18.984375 14.21875 18.964844 14.246094 C 18.945312 14.277344 18.953125 14.316406 18.980469 14.335938"/><path fill="#ED1847" d="M 19.183594 14.035156 C 19.265625 14.109375 19.347656 14.1875 19.425781 14.265625 C 19.453125 14.292969 19.492188 14.292969 19.519531 14.269531 C 19.542969 14.242188 19.542969 14.203125 19.519531 14.175781 C 19.4375 14.09375 19.355469 14.011719 19.265625 13.9375 C 19.238281 13.914062 19.199219 13.914062 19.175781 13.941406 C 19.152344 13.96875 19.15625 14.011719 19.183594 14.035156"/><path fill="#ED1847" d="M 20.445312 14.921875 C 20.523438 14.988281 20.59375 15.0625 20.664062 15.136719 C 20.6875 15.164062 20.730469 15.164062 20.753906 15.140625 C 20.78125 15.117188 20.78125 15.074219 20.757812 15.046875 C 20.6875 14.96875 20.609375 14.894531 20.53125 14.824219 C 20.503906 14.800781 20.460938 14.804688 20.4375 14.832031 C 20.414062 14.859375 20.417969 14.898438 20.445312 14.921875"/><path fill="#ED1847" d="M 20.691406 14.589844 C 20.765625 14.671875 20.847656 14.746094 20.933594 14.8125 C 20.960938 14.835938 21.003906 14.832031 21.023438 14.800781 C 21.046875 14.773438 21.042969 14.734375 21.011719 14.710938 C 20.929688 14.648438 20.855469 14.578125 20.785156 14.5 C 20.757812 14.476562 20.71875 14.472656 20.691406 14.5 C 20.667969 14.523438 20.664062 14.566406 20.691406 14.589844"/><path fill="#ED1847" d="M 20.914062 14.316406 C 20.992188 14.371094 21.0625 14.433594 21.125 14.503906 C 21.148438 14.53125 21.191406 14.53125 21.214844 14.507812 C 21.242188 14.484375 21.246094 14.441406 21.21875 14.414062 C 21.148438 14.339844 21.070312 14.269531 20.984375 14.210938 C 20.957031 14.191406 20.917969 14.195312 20.894531 14.226562 C 20.875 14.253906 20.882812 14.296875 20.914062 14.316406"/><path fill="#ED1847" d="M 21.113281 14.015625 C 21.199219 14.085938 21.28125 14.164062 21.359375 14.246094 C 21.382812 14.273438 21.421875 14.273438 21.449219 14.25 C 21.476562 14.222656 21.476562 14.183594 21.453125 14.15625 C 21.371094 14.070312 21.285156 13.992188 21.199219 13.914062 C 21.171875 13.890625 21.128906 13.894531 21.105469 13.921875 C 21.082031 13.949219 21.085938 13.988281 21.113281 14.015625"/><path fill="#2A56AE" d="M 14.089844 11.558594 C 13.964844 11.921875 13.839844 12.292969 13.71875 12.675781 C 14.929688 12.996094 16.703125 13.359375 18.683594 13.417969 C 19.914062 13.449219 21.222656 13.367188 22.519531 13.078125 C 22.429688 12.691406 22.332031 12.308594 22.234375 11.941406 C 19.160156 12.605469 15.945312 12.035156 14.089844 11.558594"/><path fill="#ED1847" d="M 13.726562 12.652344 L 14.117188 14.472656 L 15.300781 13.273438 L 16.152344 14.855469 L 17.300781 13.589844 L 18.253906 14.980469 L 19.335938 13.703125 L 20.246094 14.90625 L 21.128906 13.6875 L 22.519531 14.671875 L 22.476562 12.902344 C 22.476562 12.902344 22.164062 13.082031 21.808594 13.113281 C 21.011719 13.183594 19.644531 13.3125 18.226562 13.242188 C 16.882812 13.175781 15.265625 12.882812 14.371094 12.761719 C 13.898438 12.695312 13.726562 12.652344 13.726562 12.652344"/><path fill="#46C0AE" d="M 22.492188 12.894531 C 19.730469 13.40625 16.421875 13.285156 13.75 12.558594 C 13.742188 12.589844 13.730469 12.621094 13.722656 12.652344 C 15.128906 13.039062 16.710938 13.257812 18.300781 13.300781 C 19.746094 13.34375 21.191406 13.238281 22.515625 12.992188 C 22.507812 12.957031 22.5 12.925781 22.492188 12.894531"/><path fill="#46C0AE" d="M 13.878906 12.640625 C 13.875 12.65625 13.867188 12.671875 13.863281 12.6875 C 13.808594 13.011719 13.96875 13.332031 14.226562 13.390625 C 14.484375 13.449219 14.726562 13.226562 14.773438 12.898438 C 14.773438 12.882812 14.773438 12.863281 14.777344 12.847656 C 14.476562 12.785156 14.175781 12.714844 13.878906 12.640625"/><path fill="#46C0AE" d="M 15.375 12.964844 C 15.371094 12.980469 15.367188 12.996094 15.367188 13.015625 C 15.324219 13.34375 15.5 13.648438 15.753906 13.6875 C 16.007812 13.726562 16.238281 13.484375 16.269531 13.15625 C 16.269531 13.136719 16.269531 13.121094 16.269531 13.105469 C 15.972656 13.066406 15.675781 13.019531 15.375 12.964844"/><path fill="#46C0AE" d="M 16.867188 13.175781 C 16.863281 13.191406 16.859375 13.207031 16.859375 13.226562 C 16.832031 13.558594 17.019531 13.847656 17.273438 13.867188 C 17.527344 13.886719 17.746094 13.628906 17.757812 13.296875 C 17.761719 13.28125 17.757812 13.265625 17.757812 13.246094 C 17.460938 13.230469 17.164062 13.207031 16.867188 13.175781"/><path fill="#46C0AE" d="M 18.355469 13.273438 C 18.351562 13.289062 18.351562 13.304688 18.347656 13.320312 C 18.339844 13.652344 18.539062 13.929688 18.792969 13.929688 C 19.046875 13.929688 19.253906 13.65625 19.25 13.324219 C 19.25 13.304688 19.25 13.292969 19.246094 13.273438 C 18.949219 13.28125 18.652344 13.28125 18.355469 13.273438"/><path fill="#46C0AE" d="M 19.847656 13.253906 C 19.847656 13.269531 19.84375 13.285156 19.84375 13.300781 C 19.847656 13.632812 20.058594 13.894531 20.316406 13.875 C 20.570312 13.855469 20.769531 13.566406 20.75 13.234375 C 20.75 13.21875 20.746094 13.203125 20.746094 13.1875 C 20.445312 13.214844 20.144531 13.238281 19.847656 13.253906"/><path fill="#46C0AE" d="M 21.347656 13.117188 C 21.347656 13.132812 21.347656 13.152344 21.347656 13.167969 C 21.367188 13.5 21.59375 13.742188 21.851562 13.703125 C 22.109375 13.664062 22.296875 13.359375 22.261719 13.03125 C 22.261719 13.015625 22.253906 13 22.253906 12.984375 C 21.949219 13.035156 21.648438 13.078125 21.347656 13.117188"/><g clip-path="url(#g)"><path fill="#FCD006" d="M 5.121094 23.84375 C 4.625 23.65625 0.738281 20.613281 0.761719 20.011719 C 0.785156 19.347656 2.585938 17.933594 6.140625 18.21875 C 14.964844 18.929688 18.128906 21.207031 25.570312 22.441406 C 32.367188 23.574219 35.511719 19.871094 35.511719 19.871094 C 35.511719 19.871094 35.210938 23.902344 30.695312 25.296875 C 28.492188 25.980469 23.945312 26.257812 16.078125 25.542969 C 10.917969 25.070312 8.40625 25.097656 5.121094 23.84375"/><path fill="#FAB60A" d="M 31.554688 23.480469 C 25.859375 25.117188 19.714844 24.761719 13.890625 24.207031 C 11.332031 23.964844 8.703125 23.453125 6.734375 21.664062 C 5.824219 20.839844 5.015625 19.53125 4.757812 18.195312 C 2.121094 18.316406 0.78125 19.4375 0.761719 20.011719 C 0.734375 20.613281 4.625 23.65625 5.121094 23.84375 C 8.40625 25.097656 10.917969 25.070312 16.078125 25.542969 C 23.945312 26.257812 28.492188 25.980469 30.695312 25.296875 C 33.375 24.46875 34.570312 22.714844 35.097656 21.425781 C 34.183594 22.402344 32.980469 23.070312 31.554688 23.480469"/></g><g clip-path="url(#h)"><path fill="#2A56AE" d="M 25.570312 22.441406 C 18.128906 21.207031 14.964844 18.929688 6.140625 18.21875 C 2.585938 17.933594 0.785156 19.347656 0.761719 20.011719 C 0.757812 20.027344 0.761719 20.046875 0.765625 20.066406 C 0.914062 20.449219 1.171875 20.671875 1.429688 20.914062 C 2.316406 20.445312 3.746094 20.082031 5.714844 20.242188 C 14.539062 20.949219 17.703125 23.226562 25.144531 24.464844 C 30.496094 25.355469 33.582031 23.25 34.652344 22.3125 C 35.425781 21.027344 35.511719 19.871094 35.511719 19.871094 C 35.511719 19.871094 32.367188 23.574219 25.570312 22.441406"/></g><g clip-path="url(#i)"><path fill="#ED1847" d="M 25.542969 23.394531 C 18.101562 22.15625 14.941406 19.878906 6.117188 19.171875 C 3.378906 18.949219 1.632812 19.773438 0.980469 20.449219 C 1.046875 20.535156 1.128906 20.605469 1.195312 20.691406 C 1.957031 20.066406 3.621094 19.414062 6.101562 19.613281 C 14.925781 20.320312 18.089844 22.597656 25.53125 23.835938 C 30.726562 24.699219 33.78125 22.742188 34.9375 21.773438 C 35.050781 21.542969 35.167969 21.3125 35.242188 21.070312 C 34.394531 21.878906 31.261719 24.34375 25.542969 23.394531"/></g><g clip-path="url(#j)"><path fill="#0D1222" d="M 6.128906 18.710938 C 14.953125 19.417969 18.113281 21.695312 25.558594 22.933594 C 31.699219 23.957031 34.859375 21.03125 35.410156 20.457031 C 35.496094 20.097656 35.511719 19.871094 35.511719 19.871094 C 35.511719 19.871094 32.367188 23.574219 25.570312 22.441406 C 18.128906 21.207031 14.964844 18.929688 6.140625 18.21875 C 2.585938 17.933594 0.785156 19.347656 0.761719 20.011719 C 0.757812 20.070312 0.835938 20.199219 0.878906 20.296875 C 1.253906 19.585938 2.972656 18.457031 6.128906 18.710938"/></g><path fill="#FFF" d="M 2.121094 19.140625 L 2.082031 20.597656 C 2.082031 20.636719 2.113281 20.671875 2.152344 20.671875 C 2.191406 20.671875 2.222656 20.640625 2.226562 20.601562 L 2.265625 19.144531 C 2.265625 19.105469 2.234375 19.074219 2.195312 19.070312 C 2.15625 19.070312 2.125 19.101562 2.121094 19.140625"/><path fill="#FFF" d="M 2.574219 20.320312 C 2.566406 20.550781 2.378906 20.730469 2.148438 20.726562 C 1.921875 20.71875 1.742188 20.527344 1.75 20.296875 C 1.753906 20.070312 1.945312 19.886719 2.171875 19.894531 C 2.402344 19.902344 2.582031 20.089844 2.574219 20.320312"/><path fill="#FFF" d="M 4.539062 18.578125 L 4.5 20.035156 C 4.5 20.074219 4.53125 20.105469 4.570312 20.109375 C 4.609375 20.109375 4.644531 20.078125 4.644531 20.039062 L 4.683594 18.582031 C 4.6875 18.542969 4.65625 18.507812 4.613281 18.507812 C 4.574219 18.507812 4.542969 18.539062 4.539062 18.578125"/><path fill="#FFF" d="M 4.992188 19.757812 C 4.988281 19.988281 4.796875 20.167969 4.570312 20.160156 C 4.339844 20.15625 4.160156 19.964844 4.167969 19.734375 C 4.171875 19.503906 4.363281 19.324219 4.59375 19.332031 C 4.820312 19.335938 5 19.527344 4.992188 19.757812"/><path fill="#FFF" d="M 7.648438 18.667969 L 7.609375 20.121094 C 7.605469 20.160156 7.636719 20.195312 7.675781 20.195312 C 7.71875 20.199219 7.75 20.164062 7.75 20.125 L 7.792969 18.671875 C 7.792969 18.632812 7.761719 18.597656 7.722656 18.597656 C 7.683594 18.59375 7.648438 18.625 7.648438 18.667969"/><path fill="#FFF" d="M 8.101562 19.847656 C 8.09375 20.074219 7.902344 20.257812 7.675781 20.25 C 7.449219 20.242188 7.265625 20.054688 7.273438 19.824219 C 7.28125 19.59375 7.46875 19.414062 7.699219 19.417969 C 7.925781 19.425781 8.105469 19.617188 8.101562 19.847656"/><path fill="#FFF" d="M 11.527344 19.316406 L 11.488281 20.769531 C 11.484375 20.808594 11.515625 20.84375 11.554688 20.84375 C 11.597656 20.847656 11.628906 20.8125 11.628906 20.773438 L 11.671875 19.320312 C 11.671875 19.277344 11.640625 19.246094 11.601562 19.246094 C 11.5625 19.242188 11.527344 19.273438 11.527344 19.316406"/><path fill="#FFF" d="M 11.980469 20.496094 C 11.972656 20.722656 11.78125 20.90625 11.554688 20.898438 C 11.328125 20.894531 11.148438 20.703125 11.152344 20.472656 C 11.160156 20.242188 11.351562 20.0625 11.578125 20.066406 C 11.804688 20.074219 11.984375 20.265625 11.980469 20.496094"/><path fill="#FFF" d="M 15.257812 20.210938 L 15.21875 21.667969 C 15.214844 21.707031 15.246094 21.742188 15.289062 21.742188 C 15.328125 21.742188 15.359375 21.710938 15.359375 21.671875 L 15.402344 20.214844 C 15.402344 20.175781 15.371094 20.144531 15.332031 20.140625 C 15.292969 20.140625 15.257812 20.171875 15.257812 20.210938"/><path fill="#FFF" d="M 15.710938 21.390625 C 15.703125 21.621094 15.515625 21.800781 15.285156 21.796875 C 15.058594 21.789062 14.878906 21.597656 14.882812 21.367188 C 14.890625 21.140625 15.082031 20.957031 15.308594 20.964844 C 15.535156 20.972656 15.71875 21.164062 15.710938 21.390625"/><path fill="#FFF" d="M 18.40625 21.09375 L 18.367188 22.546875 C 18.367188 22.589844 18.398438 22.621094 18.4375 22.621094 C 18.476562 22.625 18.507812 22.59375 18.511719 22.550781 L 18.550781 21.097656 C 18.550781 21.058594 18.519531 21.023438 18.480469 21.023438 C 18.441406 21.023438 18.40625 21.054688 18.40625 21.09375"/><path fill="#FFF" d="M 18.859375 22.273438 C 18.851562 22.503906 18.664062 22.683594 18.433594 22.675781 C 18.207031 22.671875 18.027344 22.480469 18.035156 22.25 C 18.039062 22.019531 18.230469 21.839844 18.457031 21.84375 C 18.6875 21.851562 18.867188 22.042969 18.859375 22.273438"/><path fill="#FFF" d="M 21.257812 21.839844 L 21.214844 23.292969 C 21.214844 23.332031 21.246094 23.367188 21.285156 23.367188 C 21.324219 23.371094 21.359375 23.335938 21.359375 23.296875 L 21.398438 21.84375 C 21.402344 21.800781 21.371094 21.769531 21.332031 21.769531 C 21.289062 21.765625 21.257812 21.796875 21.257812 21.839844"/><path fill="#FFF" d="M 21.707031 23.019531 C 21.703125 23.246094 21.511719 23.429688 21.285156 23.421875 C 21.054688 23.414062 20.875 23.222656 20.882812 22.996094 C 20.890625 22.765625 21.078125 22.585938 21.308594 22.589844 C 21.535156 22.597656 21.714844 22.789062 21.707031 23.019531"/><path fill="#FFF" d="M 24.90625 22.605469 L 24.867188 24.0625 C 24.867188 24.101562 24.898438 24.136719 24.9375 24.136719 C 24.976562 24.136719 25.007812 24.105469 25.011719 24.066406 L 25.050781 22.609375 C 25.050781 22.570312 25.019531 22.539062 24.980469 22.535156 C 24.941406 22.535156 24.90625 22.566406 24.90625 22.605469"/><path fill="#FFF" d="M 25.359375 23.785156 C 25.351562 24.015625 25.164062 24.195312 24.933594 24.191406 C 24.707031 24.183594 24.527344 23.992188 24.535156 23.761719 C 24.539062 23.535156 24.730469 23.351562 24.957031 23.359375 C 25.1875 23.363281 25.367188 23.558594 25.359375 23.785156"/><path fill="#FFF" d="M 28.78125 22.523438 L 28.738281 24.050781 C 28.738281 24.089844 28.769531 24.125 28.8125 24.128906 C 28.855469 24.128906 28.886719 24.09375 28.890625 24.054688 L 28.933594 22.527344 C 28.933594 22.484375 28.902344 22.449219 28.859375 22.449219 C 28.816406 22.445312 28.78125 22.480469 28.78125 22.523438"/><path fill="#FFF" d="M 29.257812 23.761719 C 29.25 24 29.050781 24.191406 28.8125 24.183594 C 28.570312 24.175781 28.382812 23.976562 28.390625 23.734375 C 28.394531 23.496094 28.59375 23.304688 28.835938 23.3125 C 29.074219 23.316406 29.261719 23.519531 29.257812 23.761719"/><path fill="#FFF" d="M 32.863281 21.628906 L 32.820312 23.15625 C 32.820312 23.199219 32.851562 23.230469 32.894531 23.234375 C 32.933594 23.234375 32.96875 23.203125 32.96875 23.160156 L 33.011719 21.632812 C 33.015625 21.589844 32.980469 21.554688 32.941406 21.554688 C 32.898438 21.554688 32.863281 21.585938 32.863281 21.628906"/><path fill="#FFF" d="M 33.335938 22.867188 C 33.332031 23.105469 33.132812 23.296875 32.890625 23.289062 C 32.652344 23.285156 32.464844 23.082031 32.46875 22.839844 C 32.476562 22.601562 32.675781 22.410156 32.917969 22.417969 C 33.15625 22.425781 33.34375 22.625 33.335938 22.867188"/><g clip-path="url(#k)"><path fill="#FBC708" d="M 8.503906 12.878906 L 10.175781 15.050781 L 10.175781 27.632812 L 9.609375 28.332031 L 7.257812 28.332031 L 7.257812 12.878906 L 8.503906 12.878906"/></g><g clip-path="url(#l)"><path fill="#FBC708" d="M 6.015625 12.878906 L 4.34375 15.050781 L 4.34375 27.632812 L 4.910156 28.332031 L 7.257812 28.332031 L 7.257812 12.878906 L 6.015625 12.878906"/></g><g clip-path="url(#m)"><path fill="#FCE287" d="M 10.175781 22.289062 L 4.34375 22.289062 L 4.34375 17.179688 L 10.175781 17.179688 L 10.175781 22.289062"/></g><g clip-path="url(#n)"><path fill="#FCE287" d="M 10.175781 25.15625 L 4.34375 25.15625 L 4.34375 23.457031 L 10.175781 23.457031 L 10.175781 25.15625"/></g><path fill="#FCE287" d="M 8.503906 12.878906 L 8.410156 8.539062 L 6.085938 8.539062 L 6.015625 12.878906 L 8.503906 12.878906"/><path fill="#FCE287" d="M 9.011719 14.78125 C 9.011719 15.265625 8.226562 15.660156 7.257812 15.660156 C 6.292969 15.660156 5.507812 15.265625 5.507812 14.78125 C 5.507812 14.292969 6.292969 13.902344 7.257812 13.902344 C 8.226562 13.902344 9.011719 14.292969 9.011719 14.78125"/><path fill="#F8FAD6" d="M 8.503906 12.878906 L 8.480469 11.753906 L 6.035156 11.753906 L 6.015625 12.878906 L 5.894531 13.035156 L 8.625 13.035156 L 8.503906 12.878906"/><g clip-path="url(#o)"><path fill="#CE2125" d="M 8.371094 6.445312 L 8.371094 7.167969 L 7.257812 7.167969 L 7.257812 6.445312 L 8.371094 6.445312"/></g><g clip-path="url(#p)"><path fill="#CE2125" d="M 6.148438 6.445312 L 6.148438 7.167969 L 7.257812 7.167969 L 7.257812 6.445312 L 6.148438 6.445312"/></g><path fill="#EB1D27" d="M 8.695312 14.78125 C 8.695312 15.175781 8.050781 15.5 7.257812 15.5 C 6.46875 15.5 5.824219 15.175781 5.824219 14.78125 C 5.824219 14.382812 6.46875 14.0625 7.257812 14.0625 C 8.050781 14.0625 8.695312 14.382812 8.695312 14.78125"/><g clip-path="url(#q)"><path fill="#8C712E" d="M 10.175781 17.355469 L 4.34375 17.355469 L 4.34375 17.179688 L 10.175781 17.179688 L 10.175781 17.355469"/></g><g clip-path="url(#r)"><path fill="#8C712E" d="M 10.175781 22.289062 L 4.34375 22.289062 L 4.34375 22.113281 L 10.175781 22.113281 L 10.175781 22.289062"/></g><g clip-path="url(#s)"><path fill="#8C712E" d="M 10.175781 23.632812 L 4.34375 23.632812 L 4.34375 23.457031 L 10.175781 23.457031 L 10.175781 23.632812"/></g><g clip-path="url(#t)"><path fill="#8C712E" d="M 10.175781 25.15625 L 4.34375 25.15625 L 4.34375 24.980469 L 10.175781 24.980469 L 10.175781 25.15625"/></g><g clip-path="url(#u)"><path fill="#100F0D" d="M 5.585938 18.289062 L 4.84375 18.269531 L 4.796875 18.53125 L 4.890625 18.445312 L 5.121094 18.453125 L 5.191406 19.246094 L 5.023438 19.425781 L 5.476562 19.425781 L 5.335938 19.253906 L 5.289062 18.453125 L 5.46875 18.433594 L 5.554688 18.609375 L 5.585938 18.289062"/></g><path fill="#100F0D" d="M 6.191406 18.300781 L 5.667969 18.257812 L 5.667969 19.421875 L 6.148438 19.429688 L 6.148438 19.148438 L 6.054688 19.292969 L 5.824219 19.257812 L 5.839844 18.839844 L 6.0625 18.867188 L 6.164062 19.015625 L 6.140625 18.628906 L 6.0625 18.738281 L 5.839844 18.691406 L 5.824219 18.386719 L 6.136719 18.410156 L 6.226562 18.566406 L 6.191406 18.300781"/><path fill="#100F0D" d="M 6.789062 19.171875 L 6.496094 19.257812 L 6.457031 18.429688 L 6.84375 18.429688 Z M 6.355469 18.265625 L 6.355469 19.398438 L 6.941406 19.398438 L 6.976562 18.289062 L 6.355469 18.265625"/><path fill="#100F0D" d="M 7.109375 19.566406 L 6.875 19.5625 L 6.746094 19.265625 L 6.667969 18.988281 L 6.414062 19.023438 L 6.378906 19.109375 L 6.625 19.078125 L 6.75 19.648438 L 6.941406 19.75 L 7.109375 19.566406"/><path fill="#100F0D" d="M 7.074219 18.265625 L 7.136719 18.382812 L 7.136719 19.429688 L 7.570312 19.429688 L 7.671875 18.425781 L 7.738281 18.316406 L 7.527344 18.300781 L 7.578125 18.421875 L 7.46875 19.167969 L 7.265625 19.167969 L 7.21875 18.378906 L 7.34375 18.304688 L 7.074219 18.265625"/><path fill="#100F0D" d="M 7.828125 18.277344 L 7.828125 18.527344 L 7.886719 18.398438 L 7.996094 18.398438 L 7.945312 19.304688 L 7.855469 19.304688 L 7.800781 19.148438 L 7.753906 19.429688 L 8.273438 19.429688 L 8.296875 19.148438 L 8.140625 19.304688 L 8.09375 19.304688 L 8.09375 18.417969 L 8.21875 18.40625 L 8.296875 18.617188 L 8.296875 18.277344 L 7.828125 18.277344"/><path fill="#100F0D" d="M 8.382812 18.277344 L 8.472656 18.402344 L 8.429688 19.429688 L 8.949219 19.429688 L 8.921875 19.121094 L 8.820312 19.285156 L 8.589844 19.265625 L 8.578125 18.398438 L 8.695312 18.277344 L 8.382812 18.277344"/><path fill="#100F0D" d="M 8.976562 19.429688 L 9.070312 19.316406 L 9.085938 18.277344 L 9.347656 18.277344 L 9.628906 19.386719 L 9.722656 19.429688 L 9.460938 19.4375 L 9.519531 19.324219 L 9.25 18.40625 L 9.199219 18.40625 L 9.179688 19.367188 L 9.25 19.425781 L 8.976562 19.429688"/><path fill="#100F0D" d="M 9.390625 18.796875 L 9.109375 18.746094 L 9.097656 18.855469 L 9.421875 18.96875 L 9.390625 18.796875"/><g clip-path="url(#v)"><path fill="#100F0D" d="M 9.722656 20.242188 L 4.796875 20.242188 L 4.796875 20.089844 L 9.722656 20.089844 L 9.722656 20.242188"/></g><g clip-path="url(#w)"><path fill="#EB1D27" d="M 9.722656 21.71875 L 4.796875 21.71875 L 4.796875 21.566406 L 9.722656 21.566406 L 9.722656 21.71875"/></g><path fill="#100F0D" d="M 9.015625 21.082031 L 5.503906 21.082031 L 5.503906 20.929688 L 9.015625 20.929688 L 9.015625 21.082031"/><path fill="#100F0D" d="M 9.347656 20.667969 L 5.167969 20.667969 L 5.167969 20.519531 L 9.347656 20.519531 L 9.347656 20.667969"/><path fill="#FBC708" d="M 8.292969 14.542969 L 6.226562 14.542969 L 6.226562 14.464844 L 8.292969 14.464844 L 8.292969 14.542969"/><path fill="#FBC708" d="M 8.292969 14.777344 L 6.226562 14.777344 L 6.226562 14.699219 L 8.292969 14.699219 L 8.292969 14.777344"/><path fill="#FBC708" d="M 8.105469 15.007812 L 6.414062 15.007812 L 6.414062 14.929688 L 8.105469 14.929688 L 8.105469 15.007812"/><path fill="#EB1D27" d="M 9.65625 24.667969 L 7.894531 24.667969 L 7.65625 24.472656 L 7.65625 24.15625 L 7.835938 23.953125 L 9.667969 23.953125 L 9.878906 24.128906 L 9.878906 24.5 L 9.65625 24.667969"/><g clip-path="url(#x)"><path fill="#100F0D" d="M 7.214844 23.972656 L 4.601562 23.972656 L 4.601562 23.90625 L 7.214844 23.90625 L 7.214844 23.972656"/></g><g clip-path="url(#y)" fill="#100F0D"><path d="M 7.214844 24.214844 L 4.601562 24.214844 L 4.601562 24.152344 L 7.214844 24.152344 L 7.214844 24.214844"/><path d="M 7.214844 24.460938 L 4.601562 24.460938 L 4.601562 24.394531 L 7.214844 24.394531 L 7.214844 24.460938"/><path d="M 7.042969 24.703125 L 4.773438 24.703125 L 4.773438 24.636719 L 7.042969 24.636719 L 7.042969 24.703125"/></g><path fill="#FBC708" d="M 9.722656 24.21875 L 7.855469 24.21875 L 7.855469 24.128906 L 9.722656 24.128906 L 9.722656 24.21875"/><path fill="#FBC708" d="M 9.585938 24.4375 L 7.996094 24.4375 L 7.996094 24.351562 L 9.585938 24.351562 L 9.585938 24.4375"/><path fill="#2B9C40" d="M 6.203125 8.433594 L 6.199219 8.539062 Z M 6.203125 8.433594"/><path fill="#87181C" d="M 8.105469 8.195312 L 8.023438 7.445312 L 6.472656 7.445312 L 6.421875 8.195312 L 8.105469 8.195312"/><path fill="#2B9C40" d="M 6.242188 7.167969 L 6.203125 8.433594 Z M 6.242188 7.167969"/><path fill="#2B9C40" d="M 8.320312 8.539062 L 8.324219 8.539062 L 8.277344 7.167969 L 8.320312 8.539062"/><path fill="#2B9C40" d="M 8.023438 7.445312 L 8.105469 8.195312 L 6.421875 8.195312 L 6.472656 7.445312 Z M 8.320312 8.539062 L 8.277344 7.167969 L 6.242188 7.167969 L 6.203125 8.433594 L 6.199219 8.539062 L 8.320312 8.539062"/><path fill="#721518" d="M 8.023438 7.445312 L 8.105469 8.195312 L 6.421875 8.195312 L 6.472656 7.445312 Z M 8.320312 8.539062 L 8.277344 7.167969 L 6.242188 7.167969 L 6.203125 8.433594 L 6.199219 8.539062 L 8.320312 8.539062"/><g clip-path="url(#z)"><path fill="#D98618" d="M 10.175781 15.050781 L 10.175781 17.179688 L 9.761719 17.179688 L 9.777344 15.105469 L 8.351562 13.160156 L 7.257812 13.160156 L 7.257812 13.035156 L 8.625 13.035156 L 10.175781 15.050781"/></g><g clip-path="url(#A)"><path fill="#D98618" d="M 9.691406 26.457031 L 9.089844 27.136719 L 7.257812 27.132812 L 7.257812 28.332031 L 9.609375 28.332031 L 10.175781 27.632812 L 10.175781 25.15625 L 9.703125 25.15625 L 9.691406 26.457031"/></g><g clip-path="url(#B)"><path fill="#D98618" d="M 4.777344 22.289062 L 4.34375 22.289062 L 4.34375 23.457031 L 4.789062 23.457031 L 4.777344 22.289062"/></g><g clip-path="url(#C)"><path fill="#D98618" d="M 5.625 27.128906 L 4.816406 26.484375 L 4.804688 25.15625 L 4.34375 25.15625 L 4.34375 27.632812 L 4.910156 28.332031 L 7.257812 28.332031 L 7.257812 27.132812 L 5.625 27.128906"/></g><g clip-path="url(#D)"><path fill="#DA965C" d="M 4.730469 17.355469 L 4.34375 17.355469 L 4.34375 22.113281 L 4.777344 22.113281 L 4.730469 17.355469"/></g><g clip-path="url(#E)"><path fill="#DA965C" d="M 4.800781 24.703125 L 4.773438 24.703125 L 4.773438 24.636719 L 4.800781 24.636719 L 4.796875 24.460938 L 4.601562 24.460938 L 4.601562 24.394531 L 4.796875 24.394531 L 4.796875 24.214844 L 4.601562 24.214844 L 4.601562 24.152344 L 4.796875 24.152344 L 4.792969 23.972656 L 4.601562 23.972656 L 4.601562 23.90625 L 4.792969 23.90625 L 4.789062 23.632812 L 4.34375 23.632812 L 4.34375 24.980469 L 4.804688 24.980469 L 4.800781 24.703125"/></g><path fill="#D4A690" d="M 8.324219 8.652344 L 7.949219 8.695312 L 8.105469 8.695312 L 8.152344 11.753906 L 8.480469 11.753906 L 8.410156 8.539062 L 8.320312 8.539062 L 8.324219 8.652344"/><path fill="#D4A690" d="M 6.378906 8.695312 L 6.570312 8.695312 L 6.195312 8.652344 L 6.199219 8.539062 L 6.085938 8.539062 L 6.035156 11.753906 L 6.253906 11.753906 L 6.378906 8.695312"/><path fill="#D4A690" d="M 6.570312 8.695312 L 7.949219 8.695312 L 8.324219 8.652344 L 8.320312 8.539062 L 6.199219 8.539062 L 6.195312 8.652344 L 6.570312 8.695312"/><path fill="#2B9C40" d="M 8.625 13.035156 L 8.503906 12.878906 L 8.625 13.035156"/><path fill="#2B9C40" d="M 5.894531 13.035156 L 6.015625 12.878906 L 5.894531 13.035156"/><path fill="#D4A690" d="M 8.171875 12.914062 L 8.257812 13.03125 L 7.257812 13.03125 L 7.257812 13.035156 L 8.625 13.035156 L 8.503906 12.878906 L 8.171875 12.878906 L 8.171875 12.914062"/><path fill="#D4A690" d="M 7.257812 13.035156 L 7.257812 13.03125 L 6.152344 13.03125 L 6.203125 12.953125 L 6.207031 12.878906 L 6.015625 12.878906 L 5.894531 13.035156 L 7.257812 13.035156"/><path fill="#D4A690" d="M 6.253906 11.753906 L 6.035156 11.753906 L 6.015625 12.878906 L 6.207031 12.878906 L 6.253906 11.753906"/><path fill="#D4A690" d="M 8.171875 12.878906 L 8.503906 12.878906 L 8.480469 11.753906 L 8.152344 11.753906 L 8.171875 12.878906"/><g clip-path="url(#F)"><path fill="#794A22" d="M 4.730469 17.179688 L 4.34375 17.179688 L 4.34375 17.355469 L 4.730469 17.355469 L 4.730469 17.179688"/></g><g clip-path="url(#G)"><path fill="#794A22" d="M 4.777344 22.113281 L 4.34375 22.113281 L 4.34375 22.289062 L 4.777344 22.289062 L 4.777344 22.113281"/></g><g clip-path="url(#H)"><path fill="#794A22" d="M 4.789062 23.457031 L 4.34375 23.457031 L 4.34375 23.632812 L 4.789062 23.632812 L 4.789062 23.457031"/></g><g clip-path="url(#I)"><path fill="#794A22" d="M 4.804688 24.980469 L 4.34375 24.980469 L 4.34375 25.15625 L 4.804688 25.15625 L 4.804688 24.980469"/></g><g clip-path="url(#J)"><path fill="#1E1717" d="M 4.601562 23.90625 L 4.601562 23.972656 L 4.792969 23.972656 L 4.792969 23.90625 L 4.601562 23.90625"/></g><g clip-path="url(#K)" fill="#1E1717"><path d="M 4.601562 24.152344 L 4.601562 24.214844 L 4.796875 24.214844 L 4.796875 24.152344 L 4.601562 24.152344"/><path d="M 4.601562 24.394531 L 4.601562 24.460938 L 4.796875 24.460938 L 4.796875 24.394531 L 4.601562 24.394531"/></g><g clip-path="url(#L)"><path fill="#ED2724" d="M 6.300781 6.574219 L 8.105469 6.574219 L 8.105469 7.015625 L 6.300781 7.015625 L 6.300781 6.574219"/></g><g clip-path="url(#M)"><path fill="#D98618" d="M 4.34375 17.179688 L 4.34375 15.050781 L 5.894531 13.035156 L 7.257812 13.035156 L 7.257812 13.160156 L 6.015625 13.207031 L 4.730469 15.007812 L 4.730469 17.179688 L 4.34375 17.179688"/></g></svg>